<svg width="457" height="60" viewBox="0 0 457 60" fill="none" xmlns="http://www.w3.org/2000/svg">
<rect width="457" height="60" rx="30" fill="black"/>
<path d="M159.804 25.712C157.308 25.712 155.804 27.552 155.804 30.288C155.804 33.088 157.436 34.704 159.82 34.704C161.788 34.704 163.372 33.696 163.372 31.36V31.024H159.5V29.632H164.844V36.016H163.532L163.42 34.448C162.796 35.456 161.388 36.192 159.692 36.192C156.412 36.192 154.156 33.824 154.156 30.256C154.156 26.736 156.428 24.24 159.836 24.24C162.364 24.24 164.332 25.696 164.716 27.92H163.052C162.62 26.448 161.34 25.712 159.804 25.712ZM166.31 32.08C166.31 29.664 168.038 27.968 170.39 27.968C172.726 27.968 174.454 29.664 174.454 32.08C174.454 34.496 172.726 36.192 170.39 36.192C168.038 36.192 166.31 34.496 166.31 32.08ZM167.83 32.08C167.83 33.712 168.87 34.848 170.39 34.848C171.894 34.848 172.95 33.712 172.95 32.08C172.95 30.448 171.894 29.312 170.39 29.312C168.87 29.312 167.83 30.448 167.83 32.08ZM182.702 36H181.198V29.44H179.662V28.176H181.198V25.728H182.702V28.176H184.238V29.44H182.702V36ZM184.998 32.08C184.998 29.664 186.726 27.968 189.078 27.968C191.414 27.968 193.142 29.664 193.142 32.08C193.142 34.496 191.414 36.192 189.078 36.192C186.726 36.192 184.998 34.496 184.998 32.08ZM186.518 32.08C186.518 33.712 187.558 34.848 189.078 34.848C190.582 34.848 191.638 33.712 191.638 32.08C191.638 30.448 190.582 29.312 189.078 29.312C187.558 29.312 186.518 30.448 186.518 32.08ZM204.238 36.176C200.942 36.176 198.75 33.808 198.75 30.224C198.75 26.656 201.006 24.24 204.318 24.24C206.926 24.24 208.926 25.792 209.358 28.16H207.678C207.246 26.656 205.95 25.744 204.27 25.744C201.934 25.744 200.398 27.504 200.398 30.208C200.398 32.912 201.934 34.672 204.27 34.672C205.966 34.672 207.31 33.76 207.742 32.336H209.406C208.91 34.64 206.846 36.176 204.238 36.176ZM212.498 35.984H210.994V24.224H212.498V29.376C212.994 28.528 213.938 27.952 215.154 27.952C217.154 27.952 218.114 29.216 218.114 31.216V36H216.61V31.552C216.61 29.968 215.858 29.328 214.738 29.328C213.282 29.328 212.498 30.384 212.498 31.728V35.984ZM223.573 36.192C221.269 36.192 219.685 34.528 219.685 32.096C219.685 29.648 221.237 27.952 223.509 27.952C225.733 27.952 227.189 29.488 227.189 31.808V32.368L221.141 32.384C221.253 34.032 222.117 34.944 223.605 34.944C224.773 34.944 225.541 34.464 225.797 33.568H227.205C226.821 35.248 225.509 36.192 223.573 36.192ZM223.509 29.216C222.197 29.216 221.365 30 221.173 31.376H225.685C225.685 30.08 224.837 29.216 223.509 29.216ZM228.357 32.096C228.357 29.648 229.909 27.952 232.197 27.952C234.165 27.952 235.541 29.072 235.813 30.816H234.309C234.053 29.824 233.253 29.296 232.245 29.296C230.821 29.296 229.845 30.384 229.845 32.08C229.845 33.76 230.757 34.848 232.181 34.848C233.253 34.848 234.053 34.288 234.325 33.36H235.829C235.525 35.056 234.069 36.192 232.181 36.192C229.877 36.192 228.357 34.56 228.357 32.096ZM238.952 36H237.448V24.224H238.952V31.856L242.424 28.176H244.312L241.32 31.296L244.296 36H242.568L240.28 32.384L238.952 33.776V36ZM244.732 32.08C244.732 29.664 246.46 27.968 248.812 27.968C251.148 27.968 252.876 29.664 252.876 32.08C252.876 34.496 251.148 36.192 248.812 36.192C246.46 36.192 244.732 34.496 244.732 32.08ZM246.252 32.08C246.252 33.712 247.292 34.848 248.812 34.848C250.316 34.848 251.372 33.712 251.372 32.08C251.372 30.448 250.316 29.312 248.812 29.312C247.292 29.312 246.252 30.448 246.252 32.08ZM259.762 28.176H261.25V36H259.906L259.746 34.816C259.298 35.632 258.258 36.192 257.106 36.192C255.282 36.192 254.258 34.96 254.258 33.04V28.176H255.762V32.544C255.762 34.224 256.482 34.864 257.634 34.864C259.01 34.864 259.762 33.984 259.762 32.304V28.176ZM265.64 36H264.136V29.44H262.6V28.176H264.136V25.728H265.64V28.176H267.176V29.44H265.64V36Z" fill="white"/>
<path d="M293.796 22.4541L300.546 29.2041C300.651 29.3086 300.734 29.4328 300.791 29.5696C300.848 29.7063 300.877 29.8529 300.877 30.001C300.877 30.149 300.848 30.2957 300.791 30.4324C300.734 30.5691 300.651 30.6933 300.546 30.7979L293.796 37.5479C293.585 37.7592 293.298 37.8779 292.999 37.8779C292.7 37.8779 292.414 37.7592 292.202 37.5479C291.991 37.3365 291.872 37.0499 291.872 36.751C291.872 36.4521 291.991 36.1654 292.202 35.9541L297.031 31.125L283.25 31.125C282.952 31.125 282.665 31.0065 282.455 30.7955C282.244 30.5846 282.125 30.2984 282.125 30C282.125 29.7017 282.244 29.4155 282.455 29.2045C282.665 28.9936 282.952 28.875 283.25 28.875L297.031 28.875L292.201 24.046C291.99 23.8346 291.871 23.548 291.871 23.2491C291.871 22.9502 291.99 22.6636 292.201 22.4522C292.413 22.2409 292.699 22.1222 292.998 22.1222C293.297 22.1222 293.584 22.2409 293.795 22.4522L293.796 22.4541Z" fill="white"/>
</svg>
