<svg width="16" height="17" viewBox="0 0 16 17" fill="none" xmlns="http://www.w3.org/2000/svg">
<path d="M2.46937 9.96939L7.46937 4.96939C7.53905 4.89947 7.62184 4.84399 7.71301 4.80614C7.80417 4.76828 7.90191 4.7488 8.00062 4.7488C8.09933 4.7488 8.19707 4.76828 8.28824 4.80614C8.3794 4.84399 8.46219 4.89947 8.53187 4.96939L13.5319 9.96939C13.6728 10.1103 13.7519 10.3014 13.7519 10.5006C13.7519 10.6999 13.6728 10.891 13.5319 11.0319C13.391 11.1728 13.1999 11.2519 13.0006 11.2519C12.8014 11.2519 12.6103 11.1728 12.4694 11.0319L8 6.56251L3.53062 11.0325C3.38973 11.1734 3.19863 11.2526 2.99937 11.2526C2.80011 11.2526 2.60902 11.1734 2.46812 11.0325C2.32723 10.8916 2.24807 10.7005 2.24807 10.5013C2.24807 10.302 2.32723 10.1109 2.46812 9.97001L2.46937 9.96939Z" fill="black"/>
</svg>
